<?xml version="1.0" encoding="UTF-8"?>
<svg xmlns:inkscape="http://www.inkscape.org/namespaces/inkscape" xmlns:svg="http://www.w3.org/2000/svg" xmlns:sodipodi="http://sodipodi.sourceforge.net/DTD/sodipodi-0.dtd" xmlns:xlink="http://www.w3.org/1999/xlink" id="svg2" version="1.1" width="512" height="512"><defs><clipPath clipPathUnits="userSpaceOnUse" id="clipPathFlag"><rect id="clipPathMask" width="398" height="398" x="57" y="57" rx="35" ry="35"/></clipPath></defs><g id="layer_back" inkscape:groupmode="layer" inkscape:label="back" style="display:inline"><image id="image_back" x="0" y="0" width="512" height="512" xlink:href="back.png"/></g><g id="layer_mask" x="57" y="57" width="398" height="398" inkscape:groupmode="layer" inkscape:label="mask" style="display:inline" clip-path="url(#clipPathFlag)"><g id="flag_mask_group" x="57" y="57" width="512" height="512" transform="translate(57,57) scale(0.7775)"><svg xmlns="http://www.w3.org/2000/svg" xmlns:rdf="http://www.w3.org/1999/02/22-rdf-syntax-ns#" xmlns:cc="http://creativecommons.org/ns#" xmlns:dc="http://purl.org/dc/elements/1.1/" id="svg378" height="512" width="512" version="1" y="0" x="0">
 <metadata id="metadata3357">
  <rdf:RDF>
   <cc:Work rdf:about="">
    <dc:format>image/svg+xml</dc:format>
    <dc:type rdf:resource="http://purl.org/dc/dcmitype/StillImage"/>
   </cc:Work>
  </rdf:RDF>
 </metadata>
 <g id="flag" fill-rule="evenodd" transform="matrix(.51314 0 0 1.0322 0 -.0000057278)" stroke-width="1pt">
  <rect id="rect171" transform="matrix(.93865 0 0 .69686 0 -.000015259)" rx="0" ry="0" height="708.66" width="1063" y="0" x="0" fill="#007308"/>
  <rect id="rect256" transform="matrix(.93865 0 0 .69686 0 -.000015259)" rx="0" ry="0" height="236.22" width="1063" y="475.56" x="0" fill="#bf0000"/>
  <rect id="rect255" height="164.61" width="997.77" y="-.000015" x="0" fill="#ffb300"/>
 </g>
</svg></g></g><g id="layer_fore" inkscape:groupmode="layer" inkscape:label="fore" style="display:inline"><image id="image_fore" x="0" y="0" width="512" height="512" xlink:href="fore.png"/></g></svg>
